<svg width="83" height="83" viewBox="0 0 83 83" fill="none" xmlns="http://www.w3.org/2000/svg">
<path d="M61.4122 20.0342L62.1927 18.5025L62.1926 18.5024L61.4122 20.0342ZM65.92 24.542L67.4518 23.7615L67.4518 23.7615L65.92 24.542ZM67.0441 35.4131H68.7632H67.0441ZM65.92 51.0986L67.4517 51.8791L67.4518 51.8791L65.92 51.0986ZM61.4122 55.6055L62.1926 57.1372L62.1927 57.1372L61.4122 55.6055ZM18.1134 64.4033L16.8978 63.1877L16.8978 63.1877L18.1134 64.4033ZM15.4718 63.3096H13.7527V63.3098L15.4718 63.3096ZM15.4718 35.4131H13.7527H15.4718ZM16.5958 24.542L15.0641 23.7615L15.0641 23.7616L16.5958 24.542ZM21.1036 20.0342L20.3232 18.5025L20.3232 18.5025L21.1036 20.0342ZM31.9747 18.9102V17.1911V18.9102ZM24.7792 57.7375L25.9948 58.9531L24.7792 57.7375ZM50.5411 18.9102V20.6292C53.4577 20.6292 55.5418 20.6306 57.1755 20.764C58.7891 20.8959 59.8114 21.148 60.6319 21.5659L61.4122 20.0342L62.1926 18.5024C60.8067 17.7964 59.2816 17.4865 57.4554 17.3373C55.6492 17.1897 53.401 17.1911 50.5411 17.1911V18.9102ZM61.4122 20.0342L60.6318 21.5659C62.2491 22.39 63.5643 23.7051 64.3883 25.3225L65.92 24.542L67.4518 23.7615C66.2981 21.4973 64.4569 19.6562 62.1927 18.5025L61.4122 20.0342ZM65.92 24.542L64.3883 25.3224C64.8063 26.1429 65.0584 27.1651 65.1902 28.7787C65.3237 30.4124 65.325 32.4965 65.325 35.4131H67.0441H68.7632C68.7632 32.5532 68.7645 30.3049 68.617 28.4988C68.4678 26.6726 68.1579 25.1475 67.4518 23.7615L65.92 24.542ZM67.0441 35.4131H65.325V40.2266H67.0441H68.7632V35.4131H67.0441ZM67.0441 40.2266H65.325C65.325 43.1433 65.3237 45.2276 65.1903 46.8615C65.0585 48.4754 64.8063 49.4978 64.3883 50.3182L65.92 51.0986L67.4518 51.8791C68.158 50.4931 68.4679 48.9678 68.617 47.1414C68.7645 45.335 68.7632 43.0865 68.7632 40.2266H67.0441ZM65.92 51.0986L64.3884 50.3181C63.5644 51.935 62.2493 53.2496 60.6318 54.0737L61.4122 55.6055L62.1927 57.1372C64.4565 55.9837 66.2979 54.1435 67.4517 51.8791L65.92 51.0986ZM61.4122 55.6055L60.6318 54.0737C59.8112 54.4918 58.7888 54.7441 57.1753 54.8762C55.5417 55.0098 53.4577 55.0114 50.5411 55.0114V56.7305V58.4496C53.4012 58.4496 55.6495 58.4507 57.4557 58.3029C59.282 58.1535 60.8069 57.8432 62.1926 57.1372L61.4122 55.6055ZM50.5411 56.7305V55.0114H27.2104V56.7305V58.4496H50.5411V56.7305ZM24.7792 57.7375L23.5637 56.5219L16.8978 63.1877L18.1134 64.4033L19.329 65.6189L25.9948 58.9531L24.7792 57.7375ZM18.1134 64.4033L16.8978 63.1877C16.9078 63.1777 16.9442 63.1525 16.996 63.1436C17.0385 63.1362 17.068 63.1435 17.0848 63.1504C17.1017 63.1574 17.1277 63.1731 17.1526 63.2084C17.183 63.2515 17.1909 63.2952 17.1909 63.3094L15.4718 63.3096L13.7527 63.3098C13.753 66.22 17.2718 67.676 19.329 65.6189L18.1134 64.4033ZM15.4718 63.3096H17.1909V35.4131H15.4718H13.7527V63.3096H15.4718ZM15.4718 35.4131H17.1909C17.1909 32.4965 17.1922 30.4124 17.3256 28.7787C17.4574 27.1651 17.7095 26.1428 18.1276 25.3224L16.5958 24.542L15.0641 23.7616C14.358 25.1475 14.048 26.6726 13.8989 28.4988C13.7513 30.305 13.7527 32.5533 13.7527 35.4131H15.4718ZM16.5958 24.542L18.1275 25.3224C18.9516 23.7051 20.2668 22.39 21.8841 21.5659L21.1036 20.0342L20.3232 18.5025C18.0589 19.6562 16.2178 21.4973 15.0641 23.7615L16.5958 24.542ZM21.1036 20.0342L21.8841 21.5659C22.7045 21.1479 23.7267 20.8958 25.3404 20.764C26.9741 20.6305 29.0581 20.6292 31.9747 20.6292V18.9102V17.1911C29.1149 17.1911 26.8666 17.1897 25.0605 17.3372C23.2342 17.4864 21.7091 17.7963 20.3232 18.5025L21.1036 20.0342ZM31.9747 18.9102V20.6292H50.5411V18.9102V17.1911H31.9747V18.9102ZM27.2104 56.7305V55.0114C25.8426 55.0114 24.5308 55.5547 23.5637 56.5219L24.7792 57.7375L25.9948 58.9531C26.3172 58.6307 26.7545 58.4496 27.2104 58.4496V56.7305Z" fill="#222222"/>
<path d="M29.2245 32.6626L53.2917 32.6626M29.2245 42.9771H46.4154" stroke="#BE8CFF" stroke-width="3.43817" stroke-linecap="round" stroke-linejoin="round"/>
</svg>
