<svg width="83" height="83" viewBox="0 0 83 83" fill="none" xmlns="http://www.w3.org/2000/svg">
<circle cx="41.2581" cy="30.9437" r="5.15726" stroke="#222222" stroke-width="3.43817" stroke-linecap="round"/>
<path d="M53.9827 28.3651C54.6666 27.1806 55.793 26.3162 57.1142 25.9622C58.4354 25.6082 59.8431 25.7935 61.0276 26.4774C62.2122 27.1613 63.0765 28.2877 63.4305 29.6089C63.7845 30.9301 63.5992 32.3378 62.9153 33.5224C62.2314 34.7069 61.105 35.5713 59.7838 35.9253C58.4626 36.2793 57.0549 36.0939 55.8703 35.4101C54.6858 34.7262 53.8215 33.5997 53.4674 32.2785C53.1134 30.9573 53.2988 29.5496 53.9827 28.3651L53.9827 28.3651Z" stroke="#222222" stroke-width="3.43817"/>
<path d="M19.6009 28.3651C20.2848 27.1806 21.4113 26.3162 22.7325 25.9622C24.0537 25.6082 25.4614 25.7935 26.6459 26.4774C27.8304 27.1613 28.6948 28.2877 29.0488 29.6089C29.4028 30.9301 29.2175 32.3378 28.5336 33.5224C27.8497 34.7069 26.7232 35.5713 25.4021 35.9253C24.0809 36.2793 22.6732 36.0939 21.4886 35.4101C20.3041 34.7262 19.4397 33.5997 19.0857 32.2785C18.7317 30.9573 18.9171 29.5496 19.6009 28.3651L19.6009 28.3651Z" stroke="#222222" stroke-width="3.43817"/>
<path d="M56.7302 42.9771L56.7303 41.258H56.7302V42.9771ZM70.0144 53.3335L71.6861 52.9328L71.6861 52.9328L70.0144 53.3335ZM67.0447 56.73V58.4491L67.0449 58.4491L67.0447 56.73ZM52.8806 53.3247L54.5629 52.9711L54.5629 52.9711L52.8806 53.3247ZM48.4783 45.3374L47.4787 43.9388L45.6494 45.2463L47.3907 46.6687L48.4783 45.3374ZM56.7302 42.9771L56.7302 44.6961C60.9453 44.6962 63.5703 46.1015 65.264 47.831C67.0043 49.608 67.8953 51.8676 68.3427 53.7342L70.0144 53.3335L71.6861 52.9328C71.1574 50.727 70.0543 47.8084 67.7205 45.4254C65.3401 42.9948 61.8111 41.2581 56.7303 41.258L56.7302 42.9771ZM70.0144 53.3335L68.3427 53.7342C68.4237 54.0723 68.3359 54.3465 68.1338 54.5696C67.9132 54.8129 67.5299 55.0108 67.0445 55.0109L67.0447 56.73L67.0449 58.4491C69.7943 58.4488 72.4453 56.1001 71.6861 52.9328L70.0144 53.3335ZM67.0447 56.73V55.0109H49.8533V56.73V58.4491H67.0447V56.73ZM49.8533 56.73V58.4491C52.6171 58.4491 55.2225 56.1089 54.5629 52.9711L52.8806 53.3247L51.1983 53.6783C51.2727 54.0323 51.1751 54.3264 50.9591 54.5616C50.7275 54.8139 50.338 55.0109 49.8533 55.0109V56.73ZM52.8806 53.3247L54.5629 52.9711C54.0085 50.333 52.7051 46.5704 49.5658 44.0061L48.4783 45.3374L47.3907 46.6687C49.6356 48.5026 50.708 51.3459 51.1983 53.6783L52.8806 53.3247ZM48.4783 45.3374L49.4779 46.736C51.122 45.5609 53.43 44.6961 56.7302 44.6961V42.9771V41.258C52.789 41.258 49.7649 42.3048 47.4787 43.9388L48.4783 45.3374Z" fill="#222222"/>
<path d="M25.786 42.9771V41.258H25.786L25.786 42.9771ZM34.037 45.3374L35.1246 46.6687L36.8659 45.2461L35.0365 43.9387L34.037 45.3374ZM29.6356 53.3247L27.9533 52.9711L27.9533 52.9711L29.6356 53.3247ZM15.4716 56.73L15.4714 58.4491H15.4716V56.73ZM12.5018 53.3335L10.8301 52.9328L10.8301 52.9328L12.5018 53.3335ZM25.786 42.9771V44.6961C29.0856 44.6961 31.3932 45.561 33.0375 46.7361L34.037 45.3374L35.0365 43.9387C32.7505 42.3051 29.7271 41.258 25.786 41.258V42.9771ZM34.037 45.3374L32.9493 44.0061C29.8104 46.5706 28.5077 50.3335 27.9533 52.9711L29.6356 53.3247L31.3179 53.6783C31.8082 51.3458 32.8802 48.5024 35.1246 46.6687L34.037 45.3374ZM29.6356 53.3247L27.9533 52.9711C27.2938 56.1089 29.8992 58.4491 32.663 58.4491V56.73V55.0109C32.1782 55.0109 31.7887 54.8139 31.5571 54.5616C31.3412 54.3264 31.2435 54.0323 31.3179 53.6783L29.6356 53.3247ZM32.663 56.73V55.0109H15.4716V56.73V58.4491H32.663V56.73ZM15.4716 56.73L15.4717 55.0109C14.9862 55.0108 14.603 54.8129 14.3824 54.5696C14.1803 54.3466 14.0925 54.0724 14.1736 53.7342L12.5018 53.3335L10.8301 52.9328C10.0709 56.1001 12.7219 58.4488 15.4714 58.4491L15.4716 56.73ZM12.5018 53.3335L14.1736 53.7342C14.621 51.8676 15.5119 49.608 17.2522 47.831C18.9459 46.1015 21.5709 44.6962 25.786 44.6961L25.786 42.9771L25.786 41.258C20.7052 41.2581 17.1761 42.9948 14.7958 45.4254C12.462 47.8084 11.3588 50.727 10.8301 52.9328L12.5018 53.3335Z" fill="#222222"/>
<path d="M41.2581 42.9771C49.3866 42.9771 52.0244 49.2521 52.8805 53.3248C53.271 55.1831 51.7524 56.7297 49.8535 56.7297H32.6627C30.7638 56.7297 29.2452 55.1831 29.6357 53.3248C30.4918 49.2521 33.1296 42.9771 41.2581 42.9771Z" stroke="#222222" stroke-width="3.43817" stroke-linecap="round"/>
<path d="M63.6062 73.9209H68.7635C71.6117 73.9209 73.9207 71.6119 73.9207 68.7636V63.6064" stroke="#BE8CFF" stroke-width="3.43817" stroke-linecap="round"/>
<path d="M63.6062 8.59521H68.7635C71.6117 8.59521 73.9207 10.9042 73.9207 13.7525V18.9097" stroke="#BE8CFF" stroke-width="3.43817" stroke-linecap="round"/>
<path d="M18.9099 73.9209H13.7527C10.9044 73.9209 8.59539 71.6119 8.59539 68.7636V63.6064" stroke="#BE8CFF" stroke-width="3.43817" stroke-linecap="round"/>
<path d="M18.9099 8.59521H13.7527C10.9044 8.59521 8.59539 10.9042 8.59539 13.7525V18.9097" stroke="#BE8CFF" stroke-width="3.43817" stroke-linecap="round"/>
</svg>
